<svg width="800" height="500" xmlns="http://www.w3.org/2000/svg">
  <!-- Background -->
  <rect width="800" height="500" fill="#f8f9fa" rx="10" ry="10"/>
  
  <!-- Title -->
  <text x="400" y="40" font-family="Arial" font-size="24" fill="#333" text-anchor="middle" font-weight="bold">DDoS zaštita - Arhitektura sustava</text>
  
  <!-- Client -->
  <rect x="50" y="100" width="120" height="80" rx="8" ry="8" fill="#64b5f6" stroke="#1976d2" stroke-width="2"/>
  <text x="110" y="145" font-family="Arial" font-size="16" fill="white" text-anchor="middle">Korisnik</text>
  <text x="110" y="165" font-family="Arial" font-size="12" fill="white" text-anchor="middle">Browser</text>
  
  <!-- Frontend -->
  <rect x="250" y="100" width="140" height="80" rx="8" ry="8" fill="#81c784" stroke="#388e3c" stroke-width="2"/>
  <text x="320" y="135" font-family="Arial" font-size="16" fill="white" text-anchor="middle">Frontend</text>
  <text x="320" y="155" font-family="Arial" font-size="12" fill="white" text-anchor="middle">Vue.js + Vite</text>
  <text x="320" y="175" font-family="Arial" font-size="12" fill="white" text-anchor="middle">Port 5173</text>
  
  <!-- Unprotected Server -->
  <rect x="500" y="100" width="220" height="100" rx="8" ry="8" fill="#ef5350" stroke="#c62828" stroke-width="2"/>
  <text x="610" y="130" font-family="Arial" font-size="16" fill="white" text-anchor="middle">Nezaštićeni Server</text>
  <text x="610" y="150" font-family="Arial" font-size="12" fill="white" text-anchor="middle">Node.js + Express</text>
  <text x="610" y="170" font-family="Arial" font-size="12" fill="white" text-anchor="middle">HTTP - Port 3000</text>
  <text x="610" y="190" font-family="Arial" font-size="12" fill="white" text-anchor="middle">WebSocket - Port 8081</text>
  
  <!-- Protected Server -->
  <rect x="500" y="250" width="220" height="150" rx="8" ry="8" fill="#66bb6a" stroke="#2e7d32" stroke-width="2"/>
  <text x="610" y="280" font-family="Arial" font-size="16" fill="white" text-anchor="middle">Zaštićeni Server</text>
  <text x="610" y="300" font-family="Arial" font-size="12" fill="white" text-anchor="middle">Node.js + Express + Security</text>
  <text x="610" y="320" font-family="Arial" font-size="12" fill="white" text-anchor="middle">HTTPS - Port 3443</text>
  <text x="610" y="340" font-family="Arial" font-size="12" fill="white" text-anchor="middle">WebSocket - Port 8082</text>
  
  <!-- Protected Server Security Features -->
  <rect x="515" y="355" width="190" height="35" rx="5" ry="5" fill="#a5d6a7" stroke="#2e7d32" stroke-width="1"/>
  <text x="610" y="377" font-family="Arial" font-size="12" fill="#1b5e20" text-anchor="middle">Rate Limiting (5 req/s)</text>
  
  <!-- Arrows -->
  <!-- Client to Frontend -->
  <line x1="170" y1="140" x2="250" y2="140" stroke="#333" stroke-width="2"/>
  <polygon points="245,135 255,140 245,145" fill="#333"/>
  
  <!-- Frontend to Unprotected -->
  <line x1="390" y1="120" x2="500" y2="120" stroke="#333" stroke-width="2"/>
  <polygon points="495,115 505,120 495,125" fill="#333"/>
  <text x="445" y="110" font-family="Arial" font-size="12" fill="#333" text-anchor="middle">HTTP</text>
  
  <!-- Frontend to Protected -->
  <path d="M 390 160 Q 420 300 500 300" stroke="#333" stroke-width="2" fill="transparent"/>
  <polygon points="495,295 505,300 495,305" fill="#333"/>
  <text x="420" y="260" font-family="Arial" font-size="12" fill="#333" text-anchor="middle">HTTPS</text>
  
  <!-- WebSocket connections -->
  <path d="M 390 170 Q 420 230 500 170" stroke="#666" stroke-width="2" stroke-dasharray="5,5" fill="transparent"/>
  <text x="420" y="210" font-family="Arial" font-size="12" fill="#666" text-anchor="middle">WebSocket</text>
  
  <path d="M 390 180 Q 420 350 500 350" stroke="#666" stroke-width="2" stroke-dasharray="5,5" fill="transparent"/>
  
  <!-- Attacker -->
  <rect x="50" y="250" width="120" height="80" rx="8" ry="8" fill="#ff7043" stroke="#e64a19" stroke-width="2"/>
  <text x="110" y="290" font-family="Arial" font-size="16" fill="white" text-anchor="middle">DDoS Napad</text>
  <text x="110" y="310" font-family="Arial" font-size="12" fill="white" text-anchor="middle">Stress Test</text>
  
  <!-- Attack arrows -->
  <line x1="170" y1="270" x2="500" y2="150" stroke="#e64a19" stroke-width="3" stroke-dasharray="5,3"/>
  <polygon points="495,145 505,150 495,155" fill="#e64a19"/>
  
  <path d="M 170 290 Q 300 340 500 320" stroke="#e64a19" stroke-width="3" stroke-dasharray="5,3" fill="transparent"/>
  <polygon points="495,315 505,320 495,325" fill="#e64a19"/>
  <text x="220" y="350" font-family="Arial" font-size="14" fill="#e64a19" font-weight="bold" text-anchor="middle">X Blokirano</text>
  
  <!-- Legend -->
  <rect x="50" y="400" width="20" height="20" rx="3" ry="3" fill="#ef5350"/>
  <text x="80" y="415" font-family="Arial" font-size="14" fill="#333">Nezaštićeni server (ranjiv)</text>
  
  <rect x="50" y="430" width="20" height="20" rx="3" ry="3" fill="#66bb6a"/>
  <text x="80" y="445" font-family="Arial" font-size="14" fill="#333">Zaštićeni server (otporan)</text>
  
  <line x1="300" y1="400" x2="340" y2="400" stroke="#333" stroke-width="2"/>
  <polygon points="335,395 345,400 335,405" fill="#333"/>
  <text x="380" y="405" font-family="Arial" font-size="14" fill="#333">HTTP/HTTPS zahtjev</text>
  
  <line x1="300" y1="430" x2="340" y2="430" stroke="#666" stroke-width="2" stroke-dasharray="5,5"/>
  <text x="380" y="435" font-family="Arial" font-size="14" fill="#333">WebSocket komunikacija</text>
  
  <line x1="500" y1="400" x2="540" y2="400" stroke="#e64a19" stroke-width="3" stroke-dasharray="5,3"/>
  <polygon points="535,395 545,400 535,405" fill="#e64a19"/>
  <text x="600" y="405" font-family="Arial" font-size="14" fill="#333">DDoS napad</text>
</svg>
